<svg xmlns="http://www.w3.org/2000/svg" width="35.435" height="15.361" viewBox="0 0 35.435 15.361"><g transform="translate(0.5 0.5)"><g transform="translate(0 0)"><g transform="translate(25.431 8.488)"><path d="M82.071,67.062a2.936,2.936,0,1,1-2.956,2.916A2.94,2.94,0,0,1,82.071,67.062Z" transform="translate(-79.115 -67.062)" fill="none" stroke="#000" stroke-linecap="round" stroke-linejoin="round" stroke-width="1"/></g><g transform="translate(3.625 8.339)"><path d="M39.554,66.771A2.937,2.937,0,1,1,36.6,69.687,2.94,2.94,0,0,1,39.554,66.771Z" transform="translate(-36.598 -66.771)" fill="none" stroke="#000" stroke-linecap="round" stroke-linejoin="round" stroke-width="1"/></g><path d="M33.155,62.137l-2.32-.012a1.311,1.311,0,0,1-1.3-1.321l.029-3.882c.013-1.9,1.1-2.256,1.742-2.3.288-.018.687-.026,1.186-.023.527,0,1.046.018,1.317.028,4.818-4.026,5.021-4.025,5.235-4.024l.457-.01c1.183-.027,4.324-.1,6.75-.083a13.377,13.377,0,0,1,3.181.189c.942.322,5.474,3.671,6.684,4.573l3.947.029c1.581.011,3.92,1.825,3.907,3.674l-.022,2.877a.5.5,0,0,1-.5.494l-2.608-.014" transform="translate(-29.53 -50.512)" fill="none" stroke="#000" stroke-linecap="round" stroke-linejoin="round" stroke-width="1"/><line x1="15.961" y1="0.109" transform="translate(9.47 11.673)" stroke-width="1" stroke="#000" stroke-linecap="round" stroke-linejoin="round" fill="none"/><g transform="translate(14.483 2.34)"><path d="M66.932,57.5l-8.347-.053a.436.436,0,0,1-.441-.379l-.375-1.993" transform="translate(-57.769 -55.075)" fill="none" stroke="#000" stroke-linecap="round" stroke-linejoin="round" stroke-width="1"/></g><g transform="translate(7.842 3.999)"><path d="M52.278,59.022l-7.014.014a.447.447,0,0,1-.413-.269.4.4,0,0,1,.117-.458" transform="translate(-44.821 -58.31)" fill="none" stroke="#000" stroke-linecap="round" stroke-linejoin="round" stroke-width="1"/></g></g></g></svg>